<svg width="317" height="120" viewBox="0 0 317 120" preserveAspectRatio="none" fill="none" xmlns="http://www.w3.org/2000/svg">
<path d="M2.72103 0H0V120H2.72103V0Z" fill="black"/>
<path d="M5.44207 0H4.08156V120H5.44207V0Z" fill="black"/>
<path d="M9.5236 0H8.16309V120H9.5236V0Z" fill="black"/>
<path d="M16.3262 0H14.9657V120H16.3262V0Z" fill="black"/>
<path d="M23.1287 0H20.4077V120H23.1287V0Z" fill="black"/>
<path d="M28.5708 0H27.2103V120H28.5708V0Z" fill="black"/>
<path d="M31.2919 0H29.9313V120H31.2919V0Z" fill="black"/>
<path d="M39.4549 0H34.0129V120H39.4549V0Z" fill="black"/>
<path d="M43.5365 0H42.176V120H43.5365V0Z" fill="black"/>
<path d="M46.2575 0H44.897V120H46.2575V0Z" fill="black"/>
<path d="M53.0601 0H51.6996V120H53.0601V0Z" fill="black"/>
<path d="M57.1416 0H54.4206V120H57.1416V0Z" fill="black"/>
<path d="M62.5837 0H59.8627V120H62.5837V0Z" fill="black"/>
<path d="M69.3863 0H68.0257V120H69.3863V0Z" fill="black"/>
<path d="M73.4678 0H72.1073V120H73.4678V0Z" fill="black"/>
<path d="M77.5493 0H74.8283V120H77.5493V0Z" fill="black"/>
<path d="M81.6309 0H78.9099V120H81.6309V0Z" fill="black"/>
<path d="M87.073 0H84.3519V120H87.073V0Z" fill="black"/>
<path d="M91.1545 0H89.794V120H91.1545V0Z" fill="black"/>
<path d="M97.9571 0H95.236V120H97.9571V0Z" fill="black"/>
<path d="M100.678 0H99.3176V120H100.678V0Z" fill="black"/>
<path d="M106.12 0H104.76V120H106.12V0Z" fill="black"/>
<path d="M112.923 0H111.562V120H112.923V0Z" fill="black"/>
<path d="M117.004 0H114.283V120H117.004V0Z" fill="black"/>
<path d="M121.086 0H119.725V120H121.086V0Z" fill="black"/>
<path d="M130.609 0H125.167V120H130.609V0Z" fill="black"/>
<path d="M133.33 0H131.97V120H133.33V0Z" fill="black"/>
<path d="M137.412 0H134.691V120H137.412V0Z" fill="black"/>
<path d="M141.494 0H140.133V120H141.494V0Z" fill="black"/>
<path d="M144.215 0H142.854V120H144.215V0Z" fill="black"/>
<path d="M151.017 0H149.657V120H151.017V0Z" fill="black"/>
<path d="M155.099 0H152.378V120H155.099V0Z" fill="black"/>
<path d="M159.18 0H157.82V120H159.18V0Z" fill="black"/>
<path d="M167.343 0H164.622V120H167.343V0Z" fill="black"/>
<path d="M171.425 0H168.704V120H171.425V0Z" fill="black"/>
<path d="M176.867 0H174.146V120H176.867V0Z" fill="black"/>
<path d="M180.948 0H179.588V120H180.948V0Z" fill="black"/>
<path d="M185.03 0H182.309V120H185.03V0Z" fill="black"/>
<path d="M190.472 0H189.112V120H190.472V0Z" fill="black"/>
<path d="M195.914 0H194.554V120H195.914V0Z" fill="black"/>
<path d="M204.077 0H201.356V120H204.077V0Z" fill="black"/>
<path d="M206.798 0H205.438V120H206.798V0Z" fill="black"/>
<path d="M210.88 0H209.519V120H210.88V0Z" fill="black"/>
<path d="M214.961 0H213.601V120H214.961V0Z" fill="black"/>
<path d="M223.124 0H217.682V120H223.124V0Z" fill="black"/>
<path d="M225.845 0H224.485V120H225.845V0Z" fill="black"/>
<path d="M229.927 0H227.206V120H229.927V0Z" fill="black"/>
<path d="M234.009 0H232.648V120H234.009V0Z" fill="black"/>
<path d="M240.811 0H239.451V120H240.811V0Z" fill="black"/>
<path d="M247.614 0H246.253V120H247.614V0Z" fill="black"/>
<path d="M251.695 0H248.974V120H251.695V0Z" fill="black"/>
<path d="M255.777 0H254.416V120H255.777V0Z" fill="black"/>
<path d="M263.94 0H258.498V120H263.94V0Z" fill="black"/>
<path d="M266.661 0H265.3V120H266.661V0Z" fill="black"/>
<path d="M270.743 0H269.382V120H270.743V0Z" fill="black"/>
<path d="M274.824 0H272.103V120H274.824V0Z" fill="black"/>
<path d="M278.906 0H277.545V120H278.906V0Z" fill="black"/>
<path d="M287.069 0H284.348V120H287.069V0Z" fill="black"/>
<path d="M292.511 0H289.79V120H292.511V0Z" fill="black"/>
<path d="M296.592 0H293.871V120H296.592V0Z" fill="black"/>
<path d="M302.034 0H299.313V120H302.034V0Z" fill="black"/>
<path d="M310.197 0H306.116V120H310.197V0Z" fill="black"/>
<path d="M312.918 0H311.558V120H312.918V0Z" fill="black"/>
<path d="M317 0H314.279V120H317V0Z" fill="black"/>
</svg>
