<svg width="20" height="20" viewBox="0 0 20 20" fill="none" xmlns="http://www.w3.org/2000/svg">
<path fill-rule="evenodd" clip-rule="evenodd" d="M16.8421 3.15789H14.2105C13.3385 3.15789 12.6316 2.45098 12.6316 1.57895C12.6316 0.706916 13.3385 0 14.2105 0H17.3684C18.8218 0 20 1.1782 20 2.63158V5.78947C20 6.66151 19.2931 7.36842 18.4211 7.36842C17.5491 7.36842 16.8421 6.66151 16.8421 5.78947V3.15789ZM5.78947 3.15789H3.15789V5.78947C3.15789 6.66151 2.45098 7.36842 1.57895 7.36842C0.706916 7.36842 0 6.66151 0 5.78947V2.63158C0 1.1782 1.1782 0 2.63158 0H5.78947C6.66151 0 7.36842 0.706916 7.36842 1.57895C7.36842 2.45098 6.66151 3.15789 5.78947 3.15789ZM5.78947 16.8421H3.15789V14.2105C3.15789 13.3385 2.45098 12.6316 1.57895 12.6316C0.706916 12.6316 0 13.3385 0 14.2105V17.3684C0 18.8218 1.1782 20 2.63158 20H5.78947C6.66151 20 7.36842 19.2931 7.36842 18.4211C7.36842 17.5491 6.66151 16.8421 5.78947 16.8421ZM14.2105 16.8421H16.8421V14.2105C16.8421 13.3385 17.5491 12.6316 18.4211 12.6316C19.2931 12.6316 20 13.3385 20 14.2105V17.3684C20 18.8218 18.8218 20 17.3684 20H14.2105C13.3385 20 12.6316 19.2931 12.6316 18.4211C12.6316 17.5491 13.3385 16.8421 14.2105 16.8421Z" fill="white"/>
</svg>
