<svg width="931" height="350" viewBox="0 0 931 350" preserveAspectRatio="none" fill="none" xmlns="http://www.w3.org/2000/svg">
<path d="M4.87435 0H0V350H4.87435V0Z" fill="black"/>
<path d="M24.3717 0H19.4974V350H24.3717V0Z" fill="black"/>
<path d="M43.8691 0H29.2461V350H43.8691V0Z" fill="black"/>
<path d="M63.3665 0H48.7435V350H63.3665V0Z" fill="black"/>
<path d="M73.1152 0H68.2408V350H73.1152V0Z" fill="black"/>
<path d="M82.8639 0H77.9895V350H82.8639V0Z" fill="black"/>
<path d="M92.6126 0H87.7382V350H92.6126V0Z" fill="black"/>
<path d="M121.859 0H107.236V350H121.859V0Z" fill="black"/>
<path d="M141.356 0H126.733V350H141.356V0Z" fill="black"/>
<path d="M151.105 0H146.23V350H151.105V0Z" fill="black"/>
<path d="M160.853 0H155.979V350H160.853V0Z" fill="black"/>
<path d="M180.351 0H165.728V350H180.351V0Z" fill="black"/>
<path d="M209.597 0H194.974V350H209.597V0Z" fill="black"/>
<path d="M219.346 0H214.471V350H219.346V0Z" fill="black"/>
<path d="M229.094 0H224.22V350H229.094V0Z" fill="black"/>
<path d="M238.843 0H233.969V350H238.843V0Z" fill="black"/>
<path d="M258.34 0H243.717V350H258.34V0Z" fill="black"/>
<path d="M277.838 0H272.963V350H277.838V0Z" fill="black"/>
<path d="M297.335 0H282.712V350H297.335V0Z" fill="black"/>
<path d="M307.084 0H302.209V350H307.084V0Z" fill="black"/>
<path d="M316.832 0H311.958V350H316.832V0Z" fill="black"/>
<path d="M326.581 0H321.707V350H326.581V0Z" fill="black"/>
<path d="M355.827 0H341.204V350H355.827V0Z" fill="black"/>
<path d="M375.325 0H360.702V350H375.325V0Z" fill="black"/>
<path d="M385.073 0H380.199V350H385.073V0Z" fill="black"/>
<path d="M404.571 0H389.948V350H404.571V0Z" fill="black"/>
<path d="M414.319 0H409.445V350H414.319V0Z" fill="black"/>
<path d="M433.817 0H428.943V350H433.817V0Z" fill="black"/>
<path d="M443.565 0H438.691V350H443.565V0Z" fill="black"/>
<path d="M463.063 0H448.44V350H463.063V0Z" fill="black"/>
<path d="M472.811 0H467.937V350H472.811V0Z" fill="black"/>
<path d="M482.56 0H477.686V350H482.56V0Z" fill="black"/>
<path d="M511.806 0H497.183V350H511.806V0Z" fill="black"/>
<path d="M531.304 0H516.681V350H531.304V0Z" fill="black"/>
<path d="M541.052 0H536.178V350H541.052V0Z" fill="black"/>
<path d="M560.55 0H545.927V350H560.55V0Z" fill="black"/>
<path d="M570.298 0H565.424V350H570.298V0Z" fill="black"/>
<path d="M589.796 0H584.922V350H589.796V0Z" fill="black"/>
<path d="M599.545 0H594.67V350H599.545V0Z" fill="black"/>
<path d="M619.042 0H604.419V350H619.042V0Z" fill="black"/>
<path d="M628.791 0H623.916V350H628.791V0Z" fill="black"/>
<path d="M638.539 0H633.665V350H638.539V0Z" fill="black"/>
<path d="M658.037 0H653.162V350H658.037V0Z" fill="black"/>
<path d="M677.534 0H662.911V350H677.534V0Z" fill="black"/>
<path d="M697.031 0H682.408V350H697.031V0Z" fill="black"/>
<path d="M706.78 0H701.906V350H706.78V0Z" fill="black"/>
<path d="M716.529 0H711.654V350H716.529V0Z" fill="black"/>
<path d="M736.026 0H731.152V350H736.026V0Z" fill="black"/>
<path d="M755.523 0H740.9V350H755.523V0Z" fill="black"/>
<path d="M775.021 0H760.398V350H775.021V0Z" fill="black"/>
<path d="M794.518 0H779.895V350H794.518V0Z" fill="black"/>
<path d="M804.267 0H799.393V350H804.267V0Z" fill="black"/>
<path d="M833.513 0H818.89V350H833.513V0Z" fill="black"/>
<path d="M843.262 0H838.387V350H843.262V0Z" fill="black"/>
<path d="M853.011 0H848.136V350H853.011V0Z" fill="black"/>
<path d="M862.759 0H857.885V350H862.759V0Z" fill="black"/>
<path d="M882.256 0H877.382V350H882.256V0Z" fill="black"/>
<path d="M901.754 0H887.131V350H901.754V0Z" fill="black"/>
<path d="M921.251 0H906.628V350H921.251V0Z" fill="black"/>
<path d="M931 0H926.126V350H931V0Z" fill="black"/>
</svg>
