<svg width="23" height="23" viewBox="0 0 23 23" fill="none" xmlns="http://www.w3.org/2000/svg">
<path d="M17.4266 23C17.0248 22.5742 16.4933 21.9738 15.9222 21.4145C14.7333 20.2507 13.5252 19.1067 12.3213 17.9589C11.838 17.4982 11.6022 16.9675 11.6346 16.2745C11.6757 15.3956 10.8124 14.5987 9.96265 14.8183C8.6205 15.165 7.72342 14.7534 6.81832 13.7126C5.4908 12.186 3.88817 10.9016 2.54254 9.38897C1.49257 8.20875 0.703442 6.81562 0.52897 5.173C0.454445 4.47051 0.364597 3.76907 0.315843 3.06519C0.296341 2.78643 0.321415 2.48536 0.410218 2.22262C0.64424 1.52745 0.924231 0.847965 1.23417 0.0357146C4.47322 3.25719 7.61024 6.37726 10.6525 9.4029C11.1554 8.96803 11.5482 8.63386 11.9348 8.29272C12.5804 7.72265 13.0157 7.08358 13.1118 6.15739C13.2268 5.04965 13.8449 4.11369 14.6034 3.30806C15.574 2.27698 16.5846 1.28388 17.5628 0.259772C17.8606 -0.0520963 18.097 -0.111682 18.4097 0.238864C18.5985 0.450029 18.8565 0.599168 19.1271 0.810332C18.9102 1.06052 18.7998 1.20722 18.6702 1.33441C17.5785 2.40696 16.4979 3.4917 15.3814 4.53776C14.9645 4.92838 15.2208 5.18066 15.466 5.4441C15.7286 5.72635 16.0075 6.02184 16.4164 5.60195C17.4709 4.5186 18.5435 3.45337 19.5945 2.36688C19.8818 2.07 20.0921 1.88218 20.4606 2.29475C20.7736 2.6453 21.0101 2.86413 20.5382 3.30319C19.4461 4.31928 18.415 5.40089 17.342 6.43824C17.0098 6.75952 16.9631 7.00483 17.333 7.33029C17.9062 7.8345 17.988 7.84809 18.4024 7.41427C19.5502 6.21279 20.7068 5.02003 21.8978 3.7851C22.3 4.15795 22.6573 4.48898 23 4.80642C22.9906 4.8803 23 4.93187 22.9787 4.95243C21.4346 6.45636 20.081 8.1861 18.1903 9.28338C17.5938 9.62975 16.8283 9.71861 16.1249 9.83255C15.7638 9.89109 15.4998 9.95904 15.2543 10.258C14.867 10.7295 14.4307 11.1668 13.9755 11.5745C13.5827 11.9264 13.6046 12.2386 13.9295 12.5975C14.2889 12.9944 14.6253 13.4133 15.0014 13.7928C16.8482 15.6542 18.7002 17.5104 20.563 19.3558C20.8461 19.6364 20.9418 19.8284 20.5926 20.136C19.545 21.0588 18.5201 22.0072 17.427 22.9997L17.4266 23Z" fill="#757575"/>
<path d="M3.49118 22.9362C2.40465 21.8069 1.17429 20.5277 0 19.3067C1.52881 17.7317 3.05935 16.1612 4.5798 14.5817C4.86467 14.2858 5.09416 14.2722 5.39679 14.5635C5.85056 15.0002 6.37711 15.3653 6.80336 15.8253C7.57717 16.6599 8.5049 16.6438 9.49706 16.4407C9.73595 16.3919 9.98147 16.3748 10.2238 16.3431C10.2566 16.3891 10.2893 16.4351 10.3221 16.4814C8.0668 18.6123 5.8119 20.7431 3.49083 22.9362H3.49118Z" fill="#757575"/>
</svg>
